<?xml version="1.0"?>
<svg width="32" height="32" xmlns="http://www.w3.org/2000/svg" xmlns:svg="http://www.w3.org/2000/svg" preserveAspectRatio="xMidYMid meet" version="1.0">

 <g class="layer">
  <title>Layer 1</title>
  <g fill="#8B4513" id="svg_1" transform="translate(0.000000,32.000000) scale(0.100000,-0.100000)">
   <path d="m97,273c-4,-3 -7,-20 -7,-36c0,-26 -2,-28 -16,-16c-14,11 -18,10 -30,-5c-18,-26 4,-80 34,-84c19,-3 20,-6 11,-23c-5,-11 -9,-30 -7,-42c3,-20 9,-22 76,-23c82,-2 94,7 75,57c-10,25 -8,28 10,31c29,4 51,59 33,84c-12,15 -16,16 -29,5c-14,-11 -16,-8 -19,21c-2,25 -8,34 -25,36c-17,3 -24,-3 -29,-22c-8,-33 -20,-33 -28,-1c-6,24 -34,34 -49,18zm16,-18c-3,-9 -8,-14 -10,-11c-3,3 -2,9 2,15c9,16 15,13 8,-4zm78,-8c-10,-9 -11,-8 -5,6c3,10 9,15 12,12c3,-3 0,-11 -7,-18zm-21,-51c0,-22 19,-30 35,-16c13,10 15,8 15,-14l0,-27l-30,18c-29,17 -31,17 -60,0l-30,-18l0,27c0,22 2,24 15,14c16,-14 35,-6 35,16c0,8 5,14 10,14c6,0 10,-6 10,-14zm-25,-56c-3,-5 -11,-10 -16,-10c-6,0 -7,5 -4,10c3,6 11,10 16,10c6,0 7,-4 4,-10z" id="svg_2"/>
  </g>
  <path d="m3,8.25c0,-0.88 -0.37,-1.8 0,-2.57c0.28,-0.58 1.04,0.16 1.57,0.57c0.47,0.37 -0.12,0.71 -0.57,1.22c-0.53,0.6 -1.59,0.53 -1,-0.14c0.48,-0.54 1,-0.73 1.57,-1.09l0,0" fill="none" id="svg_4" stroke="#000000"/>
  <path d="m739.21,285.14c0,-0.88 -0.37,-1.8 0,-2.57c0.28,-0.58 1.04,0.16 1.57,0.57c0.47,0.37 -0.12,0.71 -0.57,1.22c-0.53,0.6 -1.59,0.53 -1,-0.14c0.48,-0.54 1,-0.73 1.57,-1.09l0,0" fill="none" id="svg_7" stroke="#000000" transform="matrix(1, 0, 0, 1, 0, 0)"/>
  <path d="m9,3.25c0.88,0 2.13,0.05 2,-0.57c-0.13,-0.64 -0.7,-1.17 -1.28,-1.43c-0.69,-0.3 -0.72,1.09 -0.72,2l0.88,0l0.12,-0.72" fill="none" fill-opacity="null" id="svg_9" stroke="#000000" stroke-dasharray="null" stroke-linecap="null" stroke-linejoin="null" stroke-opacity="null"/>
  <path d="m20.2,2.45c0.81,0.2 1.38,1 2.07,0.87c0.53,-0.1 0.49,-1.16 0.81,-1.87c0.1,-0.21 -0.59,0 -1.34,0.2c-0.75,0.2 -1.26,0.4 -0.55,0.6l0.73,0.2" fill="none" fill-opacity="null" id="svg_11" stroke="#000000" stroke-dasharray="null" stroke-linecap="null" stroke-linejoin="null" stroke-opacity="null"/>
  <path d="m29.4,9.05c-0.62,-0.62 -1.2,-1.22 -0.5,-1.4c0.78,-0.21 1.68,-0.2 1.7,0l-0.2,0.73l-0.33,0.68l-0.27,0.67" fill="none" fill-opacity="null" id="svg_13" stroke="#000000" stroke-dasharray="null" stroke-linecap="null" stroke-linejoin="null" stroke-opacity="null"/>
 </g>
</svg>